<mxfile host="app.diagrams.net" modified="2023-05-23T18:29:25.879Z" agent="Mozilla/5.0 (Windows NT 10.0; Win64; x64) AppleWebKit/537.36 (KHTML, like Gecko) Chrome/113.0.0.0 Safari/537.36" version="21.3.2" etag="dJNBXEUHCNFRtno2vZea" type="device">
  <diagram id="fc1f3b67-3c9b-b1b3-7705-706421d27264" name="ERD Habit Tracker app">
    <mxGraphModel dx="1290" dy="581" grid="1" gridSize="10" guides="1" tooltips="1" connect="1" arrows="1" fold="1" page="1" pageScale="1" pageWidth="850" pageHeight="1100" background="none" math="0" shadow="0">
      <root>
        <mxCell id="0" />
        <mxCell id="1" parent="0" />
        <mxCell id="4a63a70a29bb4ada-19" value="Order" style="strokeWidth=2;whiteSpace=wrap;html=1;align=center;fontSize=13;fontFamily=Helvetica;shadow=0;" parent="1" vertex="1">
          <mxGeometry x="295" y="330" width="70" height="50" as="geometry" />
        </mxCell>
        <mxCell id="zjym_Dsfzuyl0e8LM0LR-1" value="User" style="strokeWidth=2;whiteSpace=wrap;html=1;align=center;fontSize=13;fontFamily=Helvetica;shadow=0;" parent="1" vertex="1">
          <mxGeometry x="70" y="343" width="70" height="50" as="geometry" />
        </mxCell>
        <mxCell id="zjym_Dsfzuyl0e8LM0LR-2" value="Customer" style="strokeWidth=2;whiteSpace=wrap;html=1;align=center;fontSize=13;fontFamily=Helvetica;shadow=0;" parent="1" vertex="1">
          <mxGeometry x="295" y="160" width="70" height="50" as="geometry" />
        </mxCell>
        <mxCell id="zjym_Dsfzuyl0e8LM0LR-3" value="Product" style="strokeWidth=2;whiteSpace=wrap;html=1;align=center;fontSize=13;fontFamily=Helvetica;shadow=0;" parent="1" vertex="1">
          <mxGeometry x="620" y="210" width="120" height="50" as="geometry" />
        </mxCell>
        <mxCell id="zjym_Dsfzuyl0e8LM0LR-11" value="CargoManifest" style="strokeWidth=2;whiteSpace=wrap;html=1;align=center;fontSize=13;fontFamily=Helvetica;shadow=0;" parent="1" vertex="1">
          <mxGeometry x="280" y="500" width="100" height="50" as="geometry" />
        </mxCell>
        <mxCell id="zjym_Dsfzuyl0e8LM0LR-15" value="MPS" style="strokeWidth=2;whiteSpace=wrap;html=1;align=center;fontSize=13;fontFamily=Helvetica;shadow=0;" parent="1" vertex="1">
          <mxGeometry x="564" y="40" width="70" height="50" as="geometry" />
        </mxCell>
        <mxCell id="zjym_Dsfzuyl0e8LM0LR-17" value="Make" style="rhombus;whiteSpace=wrap;html=1;shadow=0;" parent="1" vertex="1">
          <mxGeometry x="190" y="353" width="60" height="30" as="geometry" />
        </mxCell>
        <mxCell id="zjym_Dsfzuyl0e8LM0LR-21" value="" style="edgeStyle=entityRelationEdgeStyle;fontSize=12;html=1;endArrow=ERone;endFill=1;rounded=0;exitX=0;exitY=0.5;exitDx=0;exitDy=0;entryX=1;entryY=0.5;entryDx=0;entryDy=0;" parent="1" source="zjym_Dsfzuyl0e8LM0LR-17" target="zjym_Dsfzuyl0e8LM0LR-1" edge="1">
          <mxGeometry width="100" height="100" relative="1" as="geometry">
            <mxPoint x="190" y="410" as="sourcePoint" />
            <mxPoint x="230" y="410" as="targetPoint" />
          </mxGeometry>
        </mxCell>
        <mxCell id="zjym_Dsfzuyl0e8LM0LR-22" value="Storage" style="rhombus;whiteSpace=wrap;html=1;shadow=0;" parent="1" vertex="1">
          <mxGeometry x="569" y="130" width="60" height="30" as="geometry" />
        </mxCell>
        <mxCell id="zjym_Dsfzuyl0e8LM0LR-25" value="" style="fontSize=12;html=1;endArrow=ERmandOne;rounded=0;entryX=0.5;entryY=1;entryDx=0;entryDy=0;strokeWidth=3;edgeStyle=orthogonalEdgeStyle;" parent="1" source="zjym_Dsfzuyl0e8LM0LR-22" target="zjym_Dsfzuyl0e8LM0LR-15" edge="1">
          <mxGeometry width="100" height="100" relative="1" as="geometry">
            <mxPoint x="680" y="110" as="sourcePoint" />
            <mxPoint x="890" y="200" as="targetPoint" />
          </mxGeometry>
        </mxCell>
        <mxCell id="zjym_Dsfzuyl0e8LM0LR-26" value="" style="fontSize=12;html=1;endArrow=ERmandOne;rounded=0;entryX=0.5;entryY=0;entryDx=0;entryDy=0;exitX=0.5;exitY=1;exitDx=0;exitDy=0;edgeStyle=orthogonalEdgeStyle;" parent="1" source="zjym_Dsfzuyl0e8LM0LR-22" target="zjym_Dsfzuyl0e8LM0LR-3" edge="1">
          <mxGeometry width="100" height="100" relative="1" as="geometry">
            <mxPoint x="690" y="120" as="sourcePoint" />
            <mxPoint x="690" y="80" as="targetPoint" />
          </mxGeometry>
        </mxCell>
        <mxCell id="zjym_Dsfzuyl0e8LM0LR-27" value="Has" style="rhombus;whiteSpace=wrap;html=1;shadow=0;" parent="1" vertex="1">
          <mxGeometry x="300" y="250" width="60" height="30" as="geometry" />
        </mxCell>
        <mxCell id="zjym_Dsfzuyl0e8LM0LR-28" value="" style="fontSize=12;html=1;endArrow=ERmandOne;rounded=0;" parent="1" source="zjym_Dsfzuyl0e8LM0LR-27" target="zjym_Dsfzuyl0e8LM0LR-2" edge="1">
          <mxGeometry width="100" height="100" relative="1" as="geometry">
            <mxPoint x="325" y="250" as="sourcePoint" />
            <mxPoint x="325" y="210" as="targetPoint" />
          </mxGeometry>
        </mxCell>
        <mxCell id="zjym_Dsfzuyl0e8LM0LR-30" value="DeliveryManifest" style="strokeWidth=2;whiteSpace=wrap;html=1;align=center;fontSize=13;fontFamily=Helvetica;shadow=0;" parent="1" vertex="1">
          <mxGeometry x="50" y="600" width="110" height="50" as="geometry" />
        </mxCell>
        <mxCell id="zjym_Dsfzuyl0e8LM0LR-31" value="" style="rhombus;whiteSpace=wrap;html=1;shadow=0;" parent="1" vertex="1">
          <mxGeometry x="75" y="430" width="60" height="30" as="geometry" />
        </mxCell>
        <mxCell id="zjym_Dsfzuyl0e8LM0LR-37" value="" style="fontSize=12;html=1;endArrow=ERzeroToOne;endFill=1;rounded=0;exitX=0.5;exitY=1;exitDx=0;exitDy=0;entryX=0.5;entryY=0;entryDx=0;entryDy=0;" parent="1" source="zjym_Dsfzuyl0e8LM0LR-27" target="4a63a70a29bb4ada-19" edge="1">
          <mxGeometry width="100" height="100" relative="1" as="geometry">
            <mxPoint x="260" y="365" as="sourcePoint" />
            <mxPoint x="300" y="365" as="targetPoint" />
          </mxGeometry>
        </mxCell>
        <mxCell id="zjym_Dsfzuyl0e8LM0LR-40" value="" style="rhombus;whiteSpace=wrap;html=1;shadow=0;" parent="1" vertex="1">
          <mxGeometry x="300" y="610" width="60" height="30" as="geometry" />
        </mxCell>
        <mxCell id="zjym_Dsfzuyl0e8LM0LR-43" value="" style="rhombus;whiteSpace=wrap;html=1;shadow=0;" parent="1" vertex="1">
          <mxGeometry x="300" y="415" width="60" height="30" as="geometry" />
        </mxCell>
        <mxCell id="zjym_Dsfzuyl0e8LM0LR-44" value="" style="fontSize=12;html=1;endArrow=ERzeroToOne;endFill=1;rounded=0;exitX=0.5;exitY=1;exitDx=0;exitDy=0;entryX=0.5;entryY=0;entryDx=0;entryDy=0;edgeStyle=orthogonalEdgeStyle;" parent="1" source="zjym_Dsfzuyl0e8LM0LR-43" target="zjym_Dsfzuyl0e8LM0LR-11" edge="1">
          <mxGeometry width="100" height="100" relative="1" as="geometry">
            <mxPoint x="490" y="375" as="sourcePoint" />
            <mxPoint x="230" y="525" as="targetPoint" />
          </mxGeometry>
        </mxCell>
        <mxCell id="zjym_Dsfzuyl0e8LM0LR-45" value="" style="fontSize=12;html=1;endArrow=ERoneToMany;rounded=0;exitX=0.5;exitY=0;exitDx=0;exitDy=0;entryX=0.5;entryY=1;entryDx=0;entryDy=0;edgeStyle=orthogonalEdgeStyle;" parent="1" source="zjym_Dsfzuyl0e8LM0LR-43" target="4a63a70a29bb4ada-19" edge="1">
          <mxGeometry width="100" height="100" relative="1" as="geometry">
            <mxPoint x="440" y="480" as="sourcePoint" />
            <mxPoint x="370" y="380" as="targetPoint" />
          </mxGeometry>
        </mxCell>
        <mxCell id="zjym_Dsfzuyl0e8LM0LR-46" value="OrderedProducts" style="rhombus;whiteSpace=wrap;html=1;shadow=0;" parent="1" vertex="1">
          <mxGeometry x="425" y="200" width="125" height="70" as="geometry" />
        </mxCell>
        <mxCell id="zjym_Dsfzuyl0e8LM0LR-47" value="" style="edgeStyle=entityRelationEdgeStyle;fontSize=12;html=1;endArrow=ERzeroToMany;endFill=1;rounded=0;entryX=1;entryY=0.25;entryDx=0;entryDy=0;exitX=0;exitY=0.5;exitDx=0;exitDy=0;" parent="1" source="zjym_Dsfzuyl0e8LM0LR-46" target="4a63a70a29bb4ada-19" edge="1">
          <mxGeometry width="100" height="100" relative="1" as="geometry">
            <mxPoint x="370" y="480" as="sourcePoint" />
            <mxPoint x="470" y="380" as="targetPoint" />
          </mxGeometry>
        </mxCell>
        <mxCell id="zjym_Dsfzuyl0e8LM0LR-48" value="" style="edgeStyle=entityRelationEdgeStyle;fontSize=12;html=1;endArrow=ERoneToMany;rounded=0;entryX=0;entryY=0.5;entryDx=0;entryDy=0;exitX=1;exitY=0.5;exitDx=0;exitDy=0;" parent="1" source="zjym_Dsfzuyl0e8LM0LR-46" target="zjym_Dsfzuyl0e8LM0LR-3" edge="1">
          <mxGeometry width="100" height="100" relative="1" as="geometry">
            <mxPoint x="370" y="480" as="sourcePoint" />
            <mxPoint x="470" y="380" as="targetPoint" />
          </mxGeometry>
        </mxCell>
        <mxCell id="zjym_Dsfzuyl0e8LM0LR-52" value="Quantity" style="text;strokeColor=none;fillColor=none;spacingLeft=4;spacingRight=4;overflow=hidden;rotatable=0;points=[[0,0.5],[1,0.5]];portConstraint=eastwest;fontSize=12;" parent="1" vertex="1">
          <mxGeometry x="490" y="150" width="60" height="20" as="geometry" />
        </mxCell>
        <mxCell id="zjym_Dsfzuyl0e8LM0LR-55" value="" style="endArrow=none;html=1;rounded=0;exitX=1;exitY=0;exitDx=0;exitDy=0;" parent="1" source="zjym_Dsfzuyl0e8LM0LR-46" target="zjym_Dsfzuyl0e8LM0LR-52" edge="1">
          <mxGeometry relative="1" as="geometry">
            <mxPoint x="380" y="310" as="sourcePoint" />
            <mxPoint x="540" y="310" as="targetPoint" />
          </mxGeometry>
        </mxCell>
        <mxCell id="tHHhSHE9g-unbZuYOxYO-2" value="" style="fontSize=12;html=1;endArrow=ERzeroToMany;endFill=1;rounded=0;exitX=0.5;exitY=1;exitDx=0;exitDy=0;entryX=0.5;entryY=0;entryDx=0;entryDy=0;" parent="1" source="zjym_Dsfzuyl0e8LM0LR-31" target="zjym_Dsfzuyl0e8LM0LR-30" edge="1">
          <mxGeometry width="100" height="100" relative="1" as="geometry">
            <mxPoint x="140" y="485" as="sourcePoint" />
            <mxPoint x="240" y="385" as="targetPoint" />
          </mxGeometry>
        </mxCell>
        <mxCell id="tHHhSHE9g-unbZuYOxYO-4" value="" style="fontSize=12;html=1;endArrow=ERzeroToMany;endFill=1;rounded=0;exitX=1;exitY=0.5;exitDx=0;exitDy=0;entryX=0;entryY=0.75;entryDx=0;entryDy=0;" parent="1" source="zjym_Dsfzuyl0e8LM0LR-17" target="4a63a70a29bb4ada-19" edge="1">
          <mxGeometry width="100" height="100" relative="1" as="geometry">
            <mxPoint x="115" y="460" as="sourcePoint" />
            <mxPoint x="115" y="510" as="targetPoint" />
          </mxGeometry>
        </mxCell>
        <mxCell id="tP17oHUK5N-2ztj91m9C-2" value="MissingProducts" style="rhombus;whiteSpace=wrap;html=1;shadow=0;" parent="1" vertex="1">
          <mxGeometry x="425" y="333" width="125" height="70" as="geometry" />
        </mxCell>
        <mxCell id="tP17oHUK5N-2ztj91m9C-3" value="" style="edgeStyle=entityRelationEdgeStyle;fontSize=12;html=1;endArrow=ERzeroToMany;endFill=1;rounded=0;entryX=1;entryY=0.75;entryDx=0;entryDy=0;exitX=0;exitY=0.5;exitDx=0;exitDy=0;" parent="1" source="tP17oHUK5N-2ztj91m9C-2" target="4a63a70a29bb4ada-19" edge="1">
          <mxGeometry width="100" height="100" relative="1" as="geometry">
            <mxPoint x="435" y="245" as="sourcePoint" />
            <mxPoint x="375" y="365" as="targetPoint" />
          </mxGeometry>
        </mxCell>
        <mxCell id="tP17oHUK5N-2ztj91m9C-4" value="" style="edgeStyle=orthogonalEdgeStyle;fontSize=12;html=1;endArrow=ERoneToMany;rounded=0;exitX=1;exitY=0.5;exitDx=0;exitDy=0;entryX=1;entryY=0.5;entryDx=0;entryDy=0;" parent="1" source="tP17oHUK5N-2ztj91m9C-2" target="2" edge="1">
          <mxGeometry width="100" height="100" relative="1" as="geometry">
            <mxPoint x="560" y="245" as="sourcePoint" />
            <mxPoint x="630" y="245" as="targetPoint" />
          </mxGeometry>
        </mxCell>
        <mxCell id="tP17oHUK5N-2ztj91m9C-5" value="Quantity" style="text;strokeColor=none;fillColor=none;spacingLeft=4;spacingRight=4;overflow=hidden;rotatable=0;points=[[0,0.5],[1,0.5]];portConstraint=eastwest;fontSize=12;" parent="1" vertex="1">
          <mxGeometry x="490" y="300" width="60" height="20" as="geometry" />
        </mxCell>
        <mxCell id="tP17oHUK5N-2ztj91m9C-6" value="" style="endArrow=none;html=1;rounded=0;exitX=1;exitY=0;exitDx=0;exitDy=0;" parent="1" source="tP17oHUK5N-2ztj91m9C-2" target="tP17oHUK5N-2ztj91m9C-5" edge="1">
          <mxGeometry relative="1" as="geometry">
            <mxPoint x="548.210922787194" y="348.99811676082857" as="sourcePoint" />
            <mxPoint x="590" y="440" as="targetPoint" />
          </mxGeometry>
        </mxCell>
        <mxCell id="eB0scZXVC4urR15_1VLf-1" value="Payment" style="strokeWidth=2;whiteSpace=wrap;html=1;align=center;fontSize=13;fontFamily=Helvetica;shadow=0;" parent="1" vertex="1">
          <mxGeometry x="65" y="240" width="70" height="50" as="geometry" />
        </mxCell>
        <mxCell id="eB0scZXVC4urR15_1VLf-2" value="" style="rhombus;whiteSpace=wrap;html=1;shadow=0;" parent="1" vertex="1">
          <mxGeometry x="170" y="250" width="60" height="30" as="geometry" />
        </mxCell>
        <mxCell id="eB0scZXVC4urR15_1VLf-3" value="" style="fontSize=12;html=1;endArrow=ERmandOne;rounded=0;exitX=1;exitY=0.5;exitDx=0;exitDy=0;entryX=0;entryY=0.5;entryDx=0;entryDy=0;edgeStyle=orthogonalEdgeStyle;" parent="1" source="eB0scZXVC4urR15_1VLf-2" target="4a63a70a29bb4ada-19" edge="1">
          <mxGeometry width="100" height="100" relative="1" as="geometry">
            <mxPoint x="340" y="260" as="sourcePoint" />
            <mxPoint x="340" y="220" as="targetPoint" />
          </mxGeometry>
        </mxCell>
        <mxCell id="eB0scZXVC4urR15_1VLf-4" value="" style="fontSize=12;html=1;endArrow=ERmandOne;rounded=0;exitX=0;exitY=0.5;exitDx=0;exitDy=0;entryX=1;entryY=0.5;entryDx=0;entryDy=0;edgeStyle=orthogonalEdgeStyle;strokeWidth=3;" parent="1" source="eB0scZXVC4urR15_1VLf-2" target="eB0scZXVC4urR15_1VLf-1" edge="1">
          <mxGeometry width="100" height="100" relative="1" as="geometry">
            <mxPoint x="280" y="295" as="sourcePoint" />
            <mxPoint x="305" y="365" as="targetPoint" />
          </mxGeometry>
        </mxCell>
        <mxCell id="9SBdAsA8HXev21idvt50-1" value="Customer&lt;br&gt;Info" style="strokeWidth=2;whiteSpace=wrap;html=1;align=center;fontSize=13;fontFamily=Helvetica;shadow=0;" parent="1" vertex="1">
          <mxGeometry x="295" y="40" width="70" height="50" as="geometry" />
        </mxCell>
        <mxCell id="9SBdAsA8HXev21idvt50-2" value="" style="fontSize=12;html=1;endArrow=ERmandOne;rounded=0;entryX=0.5;entryY=1;entryDx=0;entryDy=0;edgeStyle=orthogonalEdgeStyle;strokeWidth=3;exitX=0.5;exitY=0;exitDx=0;exitDy=0;" parent="1" source="zjym_Dsfzuyl0e8LM0LR-2" target="9SBdAsA8HXev21idvt50-1" edge="1">
          <mxGeometry width="100" height="100" relative="1" as="geometry">
            <mxPoint x="345" y="160" as="sourcePoint" />
            <mxPoint x="530" y="225" as="targetPoint" />
          </mxGeometry>
        </mxCell>
        <mxCell id="2" value="ProductInfo" style="strokeWidth=2;whiteSpace=wrap;html=1;align=center;fontSize=13;fontFamily=Helvetica;shadow=0;" parent="1" vertex="1">
          <mxGeometry x="710" y="40" width="100" height="50" as="geometry" />
        </mxCell>
        <mxCell id="4" value="" style="rhombus;whiteSpace=wrap;html=1;shadow=0;" parent="1" vertex="1">
          <mxGeometry x="730" y="130" width="60" height="30" as="geometry" />
        </mxCell>
        <mxCell id="5" value="" style="fontSize=12;html=1;endArrow=ERmandOne;rounded=0;strokeWidth=3;edgeStyle=orthogonalEdgeStyle;" parent="1" source="4" target="2" edge="1">
          <mxGeometry width="100" height="100" relative="1" as="geometry">
            <mxPoint x="690" y="120" as="sourcePoint" />
            <mxPoint x="790" y="110" as="targetPoint" />
          </mxGeometry>
        </mxCell>
        <mxCell id="6" value="" style="fontSize=12;html=1;endArrow=ERoneToMany;exitX=0.5;exitY=1;exitDx=0;exitDy=0;edgeStyle=orthogonalEdgeStyle;entryX=1;entryY=0.5;entryDx=0;entryDy=0;elbow=vertical;rounded=0;" parent="1" source="4" target="zjym_Dsfzuyl0e8LM0LR-3" edge="1">
          <mxGeometry width="100" height="100" relative="1" as="geometry">
            <mxPoint x="690" y="520" as="sourcePoint" />
            <mxPoint x="790" y="420" as="targetPoint" />
          </mxGeometry>
        </mxCell>
        <mxCell id="8" value="" style="fontSize=12;html=1;endArrow=ERoneToMany;rounded=0;elbow=vertical;exitX=0.5;exitY=0;exitDx=0;exitDy=0;entryX=0.5;entryY=1;entryDx=0;entryDy=0;" parent="1" source="zjym_Dsfzuyl0e8LM0LR-31" target="zjym_Dsfzuyl0e8LM0LR-1" edge="1">
          <mxGeometry width="100" height="100" relative="1" as="geometry">
            <mxPoint x="160" y="480" as="sourcePoint" />
            <mxPoint x="260" y="380" as="targetPoint" />
          </mxGeometry>
        </mxCell>
        <mxCell id="B2VtBoNcFOkc6Dsr5mIo-9" value="" style="fontSize=12;html=1;endArrow=ERmandOne;rounded=0;entryX=0.5;entryY=1;entryDx=0;entryDy=0;exitX=0.5;exitY=0;exitDx=0;exitDy=0;" edge="1" parent="1" source="zjym_Dsfzuyl0e8LM0LR-40" target="zjym_Dsfzuyl0e8LM0LR-11">
          <mxGeometry width="100" height="100" relative="1" as="geometry">
            <mxPoint x="440" y="610" as="sourcePoint" />
            <mxPoint x="440" y="570" as="targetPoint" />
            <Array as="points" />
          </mxGeometry>
        </mxCell>
        <mxCell id="B2VtBoNcFOkc6Dsr5mIo-10" value="" style="fontSize=12;html=1;endArrow=ERmandOne;rounded=0;entryX=1;entryY=0.5;entryDx=0;entryDy=0;exitX=0;exitY=0.5;exitDx=0;exitDy=0;" edge="1" parent="1" source="zjym_Dsfzuyl0e8LM0LR-40" target="zjym_Dsfzuyl0e8LM0LR-30">
          <mxGeometry width="100" height="100" relative="1" as="geometry">
            <mxPoint x="230" y="700" as="sourcePoint" />
            <mxPoint x="230" y="640" as="targetPoint" />
            <Array as="points" />
          </mxGeometry>
        </mxCell>
      </root>
    </mxGraphModel>
  </diagram>
</mxfile>
